<svg xmlns="http://www.w3.org/2000/svg" width="45.6" height="45.3" viewBox="0 0 45.6 45.3">
  <title>Asset 2</title>
  <g id="Layer_2" data-name="Layer 2">
    <g id="Layer_1-2" data-name="Layer 1">
      <g>
        <path d="M19.73,44.94l-.34-.08v-.63s0-.09,0-.13a.82.82,0,0,1,.13-.31.55.55,0,0,1,.56-.26A20.11,20.11,0,0,0,27,43.05l.63-.16a19.52,19.52,0,0,0,9.09-5.32l0,0,0,0a19.48,19.48,0,0,0,3.53-5.13,19.67,19.67,0,0,0,1.33-2.82,19.23,19.23,0,0,0,1-3.46,19.76,19.76,0,0,0-12-21.76l-.12-.05A20.57,20.57,0,0,0,2,18.88c0,.19-.07.38-.11.57a20.46,20.46,0,0,0,.57,9.63h0A16,16,0,0,1,2,27.36a20.17,20.17,0,0,1-.24-8.27V19A20.72,20.72,0,0,1,9.56,6.26a6.64,6.64,0,0,1,.79-.57l.39-.26.35-.23a5.3,5.3,0,0,1,.77-.47l.73-.4a9.06,9.06,0,0,1,1.22-.6l1.36-.57a1.68,1.68,0,0,1,.24-.08A1.4,1.4,0,0,0,15.63,3l-.25-1.28A5.77,5.77,0,0,0,13.86,2l-1,.32c-.29.1-.58.23-.88.36l-.28.13L11.45,3h0L11,3.19l.56-.3c.19-.09.37-.19.55-.29s.49-.26.71-.36L14,1.76a11.67,11.67,0,0,1,1.57-.55l.53-.16L16,.83A24,24,0,0,1,23.88.05,23.6,23.6,0,0,1,43.51,13.64c.18.36.32.71.45,1,.06.17.12.33.18.46s.11.3.17.43a5.85,5.85,0,0,1,.24.7c.2.65.3,1,.3,1a21.92,21.92,0,0,1,.56,8.58c0,.37-.1.73-.16,1.08a22.88,22.88,0,0,1-1.76,5.38l-.64,1.23a10.34,10.34,0,0,1-.59,1l-.37.53c-.27.4-.51.75-.71,1-.7.81-1.08,1.25-1.08,1.26a23.28,23.28,0,0,1-5.55,4.8l-.27.15-1.12.64c-.28.15-.57.28-.86.4l-.48.22a14.3,14.3,0,0,1-1.84.69l-.59.2a21.52,21.52,0,0,1-6.9.86h-.16c-.75-.07-1.34-.13-1.79-.19S19.94,45,19.73,44.94Z"/>
        <path d="M2.74,33.58a21.51,21.51,0,0,0,4,5.13c.57.53,1.14,1,1.64,1.39l.3.23,1.6,1.06h0l-1.6-1-.3-.24c-.5-.4-1.07-.85-1.64-1.39a21.8,21.8,0,0,1-4-5.13A21.5,21.5,0,0,1,.21,26.23c0-.31-.07-.63-.1-.95,0,.32.07.64.11.95A21.46,21.46,0,0,0,2.74,33.58Z"/>
        <path d="M.21,20.1A22.17,22.17,0,0,0,.1,25.18,22.17,22.17,0,0,1,.21,20.1Z"/>
        <path d="M41.06,29.3a19.75,19.75,0,0,1-4.75,7.76,19,19,0,0,0,3.47-5A19.47,19.47,0,0,0,41.06,29.3Z"/>
        <path d="M8,36.32s.6.82-.14.15a6.72,6.72,0,0,1-.92-1A3.24,3.24,0,0,0,8,36.32Z"/>
      </g>
    </g>
  </g>
</svg>
